<svg width="32" height="53" viewBox="0 0 32 53" fill="none" xmlns="http://www.w3.org/2000/svg">
<path d="M1.96074 8.47574C1.09962 7.5516 0.63082 6.3293 0.653103 5.06634C0.675387 3.80339 1.18701 2.59838 2.0802 1.7052C2.97338 0.812015 4.17839 0.300387 5.44134 0.278103C6.7043 0.25582 7.9266 0.724621 8.85074 1.58574L29.9757 22.7107C30.8887 23.6248 31.4015 24.8639 31.4015 26.1557C31.4015 27.4476 30.8887 28.6867 29.9757 29.6007L8.85074 50.7257C7.9266 51.5869 6.7043 52.0557 5.44134 52.0334C4.17839 52.0111 2.97338 51.4995 2.0802 50.6063C1.18701 49.7131 0.675387 48.5081 0.653103 47.2451C0.63082 45.9822 1.09962 44.7599 1.96074 43.8357L19.6407 26.1557L1.96074 8.47574Z" fill="#2F2E41"/>
</svg>
