<svg width="32" height="53" viewBox="0 0 32 53" fill="none" xmlns="http://www.w3.org/2000/svg">
<path d="M30.0939 43.8368C30.9551 44.7609 31.4239 45.9832 31.4016 47.2462C31.3793 48.5091 30.8677 49.7141 29.9745 50.6073C29.0813 51.5005 27.8763 52.0121 26.6133 52.0344C25.3504 52.0567 24.1281 51.5879 23.2039 50.7268L2.07895 29.6018C1.16602 28.6877 0.653239 27.4486 0.653239 26.1568C0.653239 24.8649 1.16602 23.6258 2.07895 22.7118L23.204 1.58676C24.1281 0.725643 25.3504 0.256839 26.6133 0.279121C27.8763 0.301403 29.0813 0.813038 29.9745 1.70622C30.8677 2.59941 31.3793 3.80441 31.4016 5.06737C31.4239 6.33033 30.9551 7.55262 30.094 8.47676L12.4139 26.1568L30.0939 43.8368Z" fill="#2F2E41"/>
</svg>
