<svg width="27" height="28" viewBox="0 0 27 28" fill="none" xmlns="http://www.w3.org/2000/svg">
<mask id="mask0_221_1751" style="mask-type:alpha" maskUnits="userSpaceOnUse" x="0" y="0" width="27" height="28">
<g clip-path="url(#clip0_221_1751)">
<path d="M3.61499 7.58398C3.61499 6.5717 4.42415 5.74858 5.41927 5.74858C5.89673 5.74858 6.35408 5.94286 6.69584 6.2854L7.51003 7.11363C6.4546 9.10241 6.63553 11.5871 8.05785 13.402L7.98748 13.4685C7.51505 13.9491 7.51505 14.7262 7.98748 15.2017C8.45992 15.6771 9.22385 15.6822 9.69125 15.2017L17.7377 7.02672C18.2101 6.54614 18.2101 5.76903 17.7377 5.29357C17.2652 4.8181 16.5013 4.81299 16.0339 5.29357L15.9685 5.36003C14.1844 3.91318 11.7418 3.72913 9.78674 4.80277L8.96753 3.97454C8.02769 3.01338 6.75112 2.47656 5.41927 2.47656C2.645 2.47656 0.398438 4.76187 0.398438 7.58398V23.7447C0.398438 24.6496 1.11714 25.3807 2.00671 25.3807C2.89629 25.3807 3.61499 24.6496 3.61499 23.7447V7.58398ZM13.2646 18.8367C14.1542 18.8367 14.8729 18.1056 14.8729 17.2007C14.8729 16.2957 14.1542 15.5647 13.2646 15.5647C12.3751 15.5647 11.6564 16.2957 11.6564 17.2007C11.6564 18.1056 12.3751 18.8367 13.2646 18.8367ZM16.4812 22.1087C16.4812 21.2038 15.7625 20.4727 14.8729 20.4727C13.9833 20.4727 13.2646 21.2038 13.2646 22.1087C13.2646 23.0136 13.9833 23.7447 14.8729 23.7447C15.7625 23.7447 16.4812 23.0136 16.4812 22.1087ZM16.4812 15.5647C17.3708 15.5647 18.0895 14.8336 18.0895 13.9286C18.0895 13.0237 17.3708 12.2926 16.4812 12.2926C15.5916 12.2926 14.8729 13.0237 14.8729 13.9286C14.8729 14.8336 15.5916 15.5647 16.4812 15.5647ZM19.6977 18.8367C19.6977 17.9318 18.979 17.2007 18.0895 17.2007C17.1999 17.2007 16.4812 17.9318 16.4812 18.8367C16.4812 19.7416 17.1999 20.4727 18.0895 20.4727C18.979 20.4727 19.6977 19.7416 19.6977 18.8367ZM19.6977 12.2926C20.5873 12.2926 21.306 11.5615 21.306 10.6566C21.306 9.7517 20.5873 9.02061 19.6977 9.02061C18.8082 9.02061 18.0895 9.7517 18.0895 10.6566C18.0895 11.5615 18.8082 12.2926 19.6977 12.2926ZM22.9143 15.5647C22.9143 14.6597 22.1956 13.9286 21.306 13.9286C20.4164 13.9286 19.6977 14.6597 19.6977 15.5647C19.6977 16.4696 20.4164 17.2007 21.306 17.2007C22.1956 17.2007 22.9143 16.4696 22.9143 15.5647ZM24.5226 13.9286C25.4121 13.9286 26.1308 13.1975 26.1308 12.2926C26.1308 11.3877 25.4121 10.6566 24.5226 10.6566C23.633 10.6566 22.9143 11.3877 22.9143 12.2926C22.9143 13.1975 23.633 13.9286 24.5226 13.9286Z" fill="#333333"/>
</g>
</mask>
<g mask="url(#mask0_221_1751)">
<rect x="-12.6797" y="-26.5" width="62.5585" height="80.5504" fill="#2F2E41"/>
</g>
<defs>
<clipPath id="clip0_221_1751">
<rect width="25.7324" height="26.1762" fill="white" transform="translate(0.398438 0.84375)"/>
</clipPath>
</defs>
</svg>
