<svg width="33" height="22" viewBox="0 0 33 22" fill="none" xmlns="http://www.w3.org/2000/svg">
<path d="M9.18645 10.9281C11.3772 10.9281 13.1597 8.99488 13.1597 6.61887C13.1597 4.24287 11.3772 2.30963 9.18645 2.30963C6.9957 2.30963 5.2132 4.24287 5.2132 6.61887C5.2132 8.99488 6.9957 10.9281 9.18645 10.9281ZM26.6687 4.03333H15.5436C15.1046 4.03333 14.749 4.41901 14.749 4.89518V12.6518H3.62391V1.44779C3.62391 0.971614 3.2683 0.585938 2.82926 0.585938H1.23996C0.800918 0.585938 0.445312 0.971614 0.445312 1.44779V20.4084C0.445312 20.8846 0.800918 21.2703 1.23996 21.2703H2.82926C3.2683 21.2703 3.62391 20.8846 3.62391 20.4084V17.8229H29.0527V20.4084C29.0527 20.8846 29.4083 21.2703 29.8473 21.2703H31.4366C31.8757 21.2703 32.2313 20.8846 32.2313 20.4084V10.0663C32.2313 6.73414 29.741 4.03333 26.6687 4.03333Z" fill="#2F2E41"/>
</svg>
