<svg width="27" height="30" viewBox="0 0 27 30" fill="none" xmlns="http://www.w3.org/2000/svg">
<path d="M25.9492 18.793L23.2422 16.086V12.5C23.2391 10.0218 22.3172 7.63285 20.6548 5.79498C18.9924 3.95712 16.7076 2.80093 14.2422 2.55V0.5H12.2422V2.55C9.77676 2.80093 7.49195 3.95712 5.82956 5.79498C4.16717 7.63285 3.24529 10.0218 3.24219 12.5V16.086L0.535187 18.793C0.347638 18.9805 0.242244 19.2348 0.242188 19.5V22.5C0.242188 22.7652 0.347544 23.0196 0.535081 23.2071C0.722617 23.3946 0.976971 23.5 1.24219 23.5H8.24219V24.5C8.24219 25.8261 8.76897 27.0979 9.70665 28.0355C10.6443 28.9732 11.9161 29.5 13.2422 29.5C14.5683 29.5 15.84 28.9732 16.7777 28.0355C17.7154 27.0979 18.2422 25.8261 18.2422 24.5V23.5H25.2422C25.5074 23.5 25.7618 23.3946 25.9493 23.2071C26.1368 23.0196 26.2422 22.7652 26.2422 22.5V19.5C26.2421 19.2348 26.1367 18.9805 25.9492 18.793ZM16.2422 24.5C16.2422 25.2956 15.9261 26.0587 15.3635 26.6213C14.8009 27.1839 14.0378 27.5 13.2422 27.5C12.4465 27.5 11.6835 27.1839 11.1209 26.6213C10.5583 26.0587 10.2422 25.2956 10.2422 24.5V23.5H16.2422V24.5Z" fill="#2F2E41"/>
</svg>
