<svg width="23" height="22" viewBox="0 0 23 22" fill="none" xmlns="http://www.w3.org/2000/svg">
<path d="M21.2785 7.52846L19.7364 2.51388C19.5127 1.78379 19.0824 1.14868 18.5067 0.698794C17.9309 0.248908 17.239 0.00713044 16.5293 0.00781395H6.25073C5.54098 0.00713044 4.84908 0.248908 4.27335 0.698794C3.69761 1.14868 3.26732 1.78379 3.04361 2.51388L1.50149 7.52846C1.09141 7.71445 0.741206 8.02769 0.494902 8.4288C0.248598 8.82991 0.117187 9.30099 0.117188 9.78283V15.8922C0.117188 16.794 0.572609 17.5735 1.24447 17.9975V20.7797C1.24447 21.1038 1.36324 21.4146 1.57464 21.6437C1.78605 21.8729 2.07278 22.0016 2.37175 22.0016H3.49903C3.79801 22.0016 4.08473 21.8729 4.29614 21.6437C4.50755 21.4146 4.62631 21.1038 4.62631 20.7797V18.336H18.1537V20.7797C18.1537 21.1038 18.2725 21.4146 18.4839 21.6437C18.6953 21.8729 18.982 22.0016 19.281 22.0016H20.4083C20.7072 22.0016 20.994 21.8729 21.2054 21.6437C21.4168 21.4146 21.5355 21.1038 21.5355 20.7797V17.9975C21.8775 17.7849 22.1618 17.4784 22.3597 17.1088C22.5576 16.7392 22.6622 16.3196 22.6628 15.8922V9.78283C22.6628 9.30099 22.5314 8.82991 22.2851 8.4288C22.0388 8.02769 21.6886 7.71445 21.2785 7.52846ZM6.25073 2.45157H16.5282C17.014 2.45157 17.4446 2.78636 17.5979 3.28733L18.8447 7.33907H3.93529L5.18094 3.28733C5.25573 3.04393 5.39931 2.83221 5.59132 2.68221C5.78334 2.5322 6.01404 2.45151 6.25073 2.45157V2.45157ZM4.06267 14.6703C3.84054 14.6703 3.62061 14.6228 3.41541 14.5305C3.21022 14.4383 3.02379 14.3032 2.86678 14.1329C2.70976 13.9626 2.58523 13.7604 2.50029 13.538C2.41536 13.3155 2.37168 13.0771 2.37175 12.8363C2.37183 12.5955 2.41565 12.3571 2.50072 12.1347C2.5858 11.9123 2.71045 11.7102 2.86757 11.54C3.0247 11.3699 3.21121 11.2349 3.41645 11.1428C3.6217 11.0507 3.84167 11.0034 4.0638 11.0035C4.51241 11.0036 4.94259 11.197 5.2597 11.5409C5.57681 11.8849 5.75487 12.3513 5.75472 12.8375C5.75457 13.3238 5.57622 13.79 5.2589 14.1338C4.94158 14.4775 4.51128 14.6705 4.06267 14.6703V14.6703ZM18.7173 14.6703C18.4952 14.6703 18.2753 14.6228 18.0701 14.5305C17.8649 14.4383 17.6785 14.3032 17.5214 14.1329C17.3644 13.9626 17.2399 13.7604 17.155 13.538C17.07 13.3155 17.0263 13.0771 17.0264 12.8363C17.0265 12.5955 17.0703 12.3571 17.1554 12.1347C17.2405 11.9123 17.3651 11.7102 17.5222 11.54C17.6794 11.3699 17.8659 11.2349 18.0711 11.1428C18.2764 11.0507 18.4963 11.0034 18.7185 11.0035C19.1671 11.0036 19.5973 11.197 19.9144 11.5409C20.2315 11.8849 20.4095 12.3513 20.4094 12.8375C20.4092 13.3238 20.2309 13.79 19.9136 14.1338C19.5962 14.4775 19.1659 14.6705 18.7173 14.6703V14.6703Z" fill="#2F2E41"/>
</svg>
