<svg width="31" height="25" viewBox="0 0 31 25" fill="none" xmlns="http://www.w3.org/2000/svg">
<g clip-path="url(#clip0_280_3120)">
<path d="M22.4563 9.62214C22.8117 9.27438 23.2818 9.08506 23.7676 9.09406C24.2533 9.10306 24.7168 9.30967 25.0603 9.67038C25.4038 10.0311 25.6006 10.5177 25.6092 11.0278C25.6178 11.5378 25.4374 12.0314 25.1062 12.4046L16.9813 20.9359C16.6297 21.3046 16.1531 21.5117 15.6563 21.5117C15.1594 21.5117 14.6828 21.3046 14.3312 20.9359L6.20625 12.4046C5.87505 12.0314 5.69474 11.5378 5.70331 11.0278C5.71188 10.5177 5.90866 10.0311 6.2522 9.67038C6.59573 9.30967 7.05919 9.10306 7.54494 9.09406C8.0307 9.08506 8.50081 9.27438 8.85625 9.62214L15.6563 16.7621L22.4563 9.62214ZM5.65625 28.7321C5.65625 29.2543 5.85379 29.755 6.20543 30.1243C6.55706 30.4935 7.03397 30.7009 7.53125 30.7009L23.7813 30.7009C24.2785 30.7009 24.7554 30.4935 25.1071 30.1243C25.4587 29.755 25.6563 29.2543 25.6563 28.7321C25.6563 28.21 25.4587 27.7092 25.1071 27.34C24.7554 26.9708 24.2785 26.7634 23.7813 26.7634L7.53125 26.7634C6.49625 26.7634 5.65625 27.6454 5.65625 28.7321Z" fill="white"/>
</g>
<defs>
<clipPath id="clip0_280_3120">
<rect width="24" height="30" fill="white" transform="translate(30.6562 0.140625) rotate(90)"/>
</clipPath>
</defs>
</svg>
