<svg width="21" height="16" viewBox="0 0 21 16" fill="none" xmlns="http://www.w3.org/2000/svg">
<path d="M16.9484 1.06745C17.3039 0.719693 17.774 0.53037 18.2597 0.539369C18.7455 0.548368 19.209 0.754987 19.5525 1.1157C19.896 1.47641 20.0928 1.96304 20.1014 2.47308C20.1099 2.98312 19.9296 3.47674 19.5984 3.84995L11.4734 12.3812C11.1219 12.7499 10.6453 12.957 10.1484 12.957C9.65156 12.957 9.175 12.7499 8.82344 12.3812L0.698439 3.84995C0.367239 3.47674 0.186929 2.98312 0.195499 2.47308C0.20407 1.96304 0.400852 1.47641 0.744385 1.1157C1.08792 0.754987 1.55138 0.548368 2.03713 0.539369C2.52289 0.53037 2.993 0.719693 3.34844 1.06745L10.1484 8.20745L16.9484 1.06745ZM0.148438 20.1775C0.148438 20.6996 0.345982 21.2004 0.697613 21.5696C1.04924 21.9388 1.52616 22.1462 2.02344 22.1462L18.2734 22.1462C18.7707 22.1462 19.2476 21.9388 19.5993 21.5696C19.9509 21.2004 20.1484 20.6996 20.1484 20.1775C20.1484 19.6553 19.9509 19.1545 19.5993 18.7853C19.2476 18.4161 18.7707 18.2087 18.2734 18.2087L2.02344 18.2087C0.988438 18.2087 0.148438 19.0907 0.148438 20.1775Z" fill="#2F2E41"/>
</svg>
