<svg width="16" height="21" viewBox="0 0 16 21" fill="none" xmlns="http://www.w3.org/2000/svg">
<path d="M15.0029 3.50469C15.3506 3.14925 15.5399 2.67913 15.5309 2.19338C15.5219 1.70763 15.3153 1.24417 14.9546 0.900633C14.5939 0.557101 14.1073 0.360321 13.5972 0.35175C13.0872 0.34318 12.5936 0.523488 12.2204 0.854688L3.68911 8.97969C3.32043 9.33125 3.11334 9.80781 3.11334 10.3047C3.11334 10.8016 3.32043 11.2781 3.68911 11.6297L12.2204 19.7547C12.5936 20.0859 13.0872 20.2662 13.5972 20.2576C14.1073 20.2491 14.5939 20.0523 14.9546 19.7087C15.3153 19.3652 15.5219 18.9017 15.5309 18.416C15.5399 17.9302 15.3506 17.4601 15.0029 17.1047L7.86286 10.3047L15.0029 3.50469ZM-4.10714 20.3047C-4.62929 20.3047 -5.13004 20.1071 -5.49926 19.7555C-5.86847 19.4039 -6.07589 18.927 -6.07589 18.4297V2.17969C-6.07589 1.68241 -5.86847 1.20549 -5.49926 0.853862C-5.13004 0.502231 -4.62929 0.304688 -4.10714 0.304688C-3.585 0.304688 -3.08424 0.502231 -2.71503 0.853862C-2.34581 1.20549 -2.13839 1.68241 -2.13839 2.17969V18.4297C-2.13839 19.4647 -3.02039 20.3047 -4.10714 20.3047Z" fill="#2F2E41"/>
</svg>
