<svg width="16" height="21" viewBox="0 0 16 21" fill="none" xmlns="http://www.w3.org/2000/svg">
<path d="M1.12214 3.50469C0.774381 3.14925 0.585058 2.67913 0.594057 2.19338C0.603056 1.70763 0.809675 1.24417 1.17038 0.900633C1.53109 0.557101 2.01773 0.360321 2.52777 0.35175C3.03781 0.34318 3.53143 0.523488 3.90464 0.854688L12.4359 8.97969C12.8046 9.33125 13.0117 9.80781 13.0117 10.3047C13.0117 10.8016 12.8046 11.2781 12.4359 11.6297L3.90464 19.7547C3.53143 20.0859 3.03781 20.2662 2.52777 20.2576C2.01773 20.2491 1.53109 20.0523 1.17038 19.7087C0.809675 19.3652 0.603056 18.9017 0.594057 18.416C0.585058 17.9302 0.774381 17.4601 1.12214 17.1047L8.26214 10.3047L1.12214 3.50469ZM20.2321 20.3047C20.7543 20.3047 21.255 20.1071 21.6243 19.7555C21.9935 19.4039 22.2009 18.927 22.2009 18.4297V2.17969C22.2009 1.68241 21.9935 1.20549 21.6243 0.853862C21.255 0.502231 20.7543 0.304688 20.2321 0.304688C19.71 0.304688 19.2092 0.502231 18.84 0.853862C18.4708 1.20549 18.2634 1.68241 18.2634 2.17969V18.4297C18.2634 19.4647 19.1454 20.3047 20.2321 20.3047Z" fill="#2F2E41"/>
</svg>
