<svg width="17" height="24" viewBox="0 0 17 24" fill="none" xmlns="http://www.w3.org/2000/svg">
<path d="M1.17246 3.71483C0.791584 3.30242 0.58423 2.75696 0.594086 2.19336C0.603942 1.62975 0.830239 1.09201 1.2253 0.693413C1.62036 0.294822 2.15335 0.0665028 2.71196 0.0565587C3.27058 0.0466145 3.81121 0.255821 4.21996 0.640104L13.5637 10.0673C13.9675 10.4752 14.1943 11.0282 14.1943 11.6047C14.1943 12.1812 13.9675 12.7341 13.5637 13.1421L4.21996 22.5693C3.81121 22.9536 3.27058 23.1628 2.71196 23.1528C2.15335 23.1429 1.62036 22.9146 1.2253 22.516C0.830239 22.1174 0.603942 21.5796 0.594086 21.016C0.58423 20.4524 0.791584 19.907 1.17246 19.4946L8.99246 11.6047L1.17246 3.71483ZM22.1025 23.2074C22.6743 23.2074 23.2228 22.9782 23.6272 22.5702C24.0315 22.1622 24.2587 21.6089 24.2587 21.0319V2.17747C24.2587 1.60048 24.0315 1.04713 23.6272 0.639146C23.2228 0.231158 22.6743 0.00195312 22.1025 0.00195312C21.5306 0.00195312 20.9821 0.231158 20.5778 0.639146C20.1734 1.04713 19.9462 1.60048 19.9462 2.17747V21.0319C19.9462 22.2328 20.9122 23.2074 22.1025 23.2074Z" fill="white"/>
</svg>
