<svg width="17" height="24" viewBox="0 0 17 24" fill="none" xmlns="http://www.w3.org/2000/svg">
<path d="M1.0709 4.02538C0.690021 3.61297 0.482667 3.06751 0.492523 2.5039C0.50238 1.9403 0.728677 1.40255 1.12374 1.00396C1.5188 0.605368 2.05178 0.37705 2.6104 0.367106C3.16901 0.357161 3.70965 0.566368 4.1184 0.950651L13.4622 10.3779C13.8659 10.7858 14.0928 11.3387 14.0928 11.9152C14.0928 12.4918 13.8659 13.0447 13.4622 13.4526L4.1184 22.8798C3.70965 23.2641 3.16901 23.4733 2.6104 23.4634C2.05178 23.4534 1.5188 23.2251 1.12374 22.8265C0.728677 22.4279 0.50238 21.8902 0.492523 21.3266C0.482667 20.763 0.690021 20.2175 1.0709 19.8051L8.8909 11.9152L1.0709 4.02538ZM22.0009 23.518C22.5728 23.518 23.1212 23.2888 23.5256 22.8808C23.93 22.4728 24.1572 21.9194 24.1572 21.3425V2.48801C24.1572 1.91103 23.93 1.35768 23.5256 0.949693C23.1212 0.541705 22.5728 0.3125 22.0009 0.3125C21.429 0.3125 20.8806 0.541705 20.4762 0.949693C20.0718 1.35768 19.8447 1.91103 19.8447 2.48801V21.3425C19.8447 22.5433 20.8106 23.518 22.0009 23.518Z" fill="#2F2E41"/>
</svg>
